<svg width="48" height="48" viewBox="0 0 48 48" fill="none" xmlns="http://www.w3.org/2000/svg">
<path d="M43.9945 14.2054L43.9961 14.0438C43.9961 12.8054 43.8495 11.602 43.5745 10.4503L43.5962 10.5553C43.0991 8.46568 41.8056 6.6529 39.9914 5.5034L39.958 5.4834C39.0237 4.87838 37.9766 4.46849 36.8799 4.27834L36.8299 4.27168C35.9748 4.12199 35.1096 4.0384 34.2417 4.02167H34.2233C34.1567 4.02167 34.085 4.005 34.0167 4H13.9761C13.7228 4.01667 13.4761 4.02833 13.2178 4.04334C11.9428 4.06692 10.6804 4.30062 9.48137 4.73503L9.56303 4.71003C8.50192 5.11213 7.53343 5.72537 6.71616 6.51264C5.89889 7.29991 5.24984 8.24483 4.80829 9.29022L4.78829 9.34522C4.50497 10.0269 4.29332 10.8203 4.18832 11.6453L4.18332 11.692C4.09833 12.2637 4.03833 12.9437 4.01667 13.6337V13.6604C4.01667 13.7137 4.005 13.7637 4 13.8154V34.1896C4.01667 34.4229 4.02833 34.6613 4.045 34.8963C4.07833 36.3313 4.38165 37.6847 4.90495 38.9231L4.87829 38.8515C5.37201 39.9702 6.10541 40.9669 7.02666 41.771C7.9479 42.5751 9.0345 43.1671 10.2097 43.505L10.268 43.52C10.8963 43.705 11.6296 43.84 12.3862 43.8983L12.4229 43.9C13.3478 43.9883 14.2728 44 15.2011 44H33.58C34.5033 44 35.4116 43.9383 36.3016 43.8217L36.1966 43.8333C37.5755 43.685 38.9004 43.2152 40.0647 42.4616L40.0297 42.4833C41.3937 41.5983 42.4739 40.3392 43.1412 38.8565L43.1629 38.8031C43.4395 38.1648 43.6545 37.4214 43.7728 36.648L43.7795 36.5964C43.9495 35.4658 44.0214 34.3226 43.9945 33.1795V14.2104V14.2054ZM33.2884 20.8557V30.3761L33.2901 30.5144C33.2901 31.1928 33.1401 31.8378 32.8701 32.4145L32.8818 32.3862C32.6599 32.8486 32.3404 33.2575 31.9454 33.5846C31.5504 33.9118 31.0892 34.1495 30.5935 34.2813L30.5685 34.2863C29.9934 34.4528 29.4003 34.5496 28.802 34.5746H28.7853C28.737 34.5779 28.682 34.5779 28.6253 34.5779C27.9189 34.5786 27.2332 34.3393 26.6805 33.8994C26.1278 33.4594 25.7409 32.8448 25.5831 32.1561C25.4253 31.4675 25.5059 30.7457 25.8119 30.1089C26.1178 29.4721 26.6309 28.9581 27.2671 28.651L27.2854 28.6427C27.7737 28.4094 28.3437 28.2227 28.937 28.1093L28.982 28.1027C29.6119 27.966 30.2452 27.8477 30.8719 27.7027C31.0851 27.6668 31.2817 27.565 31.4342 27.4117C31.5866 27.2583 31.6872 27.0611 31.7218 26.8476V26.8426C31.7445 26.7392 31.7557 26.6335 31.7552 26.5276V17.4472C31.754 17.3402 31.7389 17.2337 31.7102 17.1305L31.7118 17.1389C31.6894 17.0242 31.6263 16.9215 31.5341 16.8498C31.4419 16.7781 31.3268 16.7423 31.2102 16.7489C30.9135 16.7705 30.6452 16.8089 30.3802 16.8655L30.4202 16.8589C29.1536 17.1089 27.887 17.3622 26.6204 17.6189L20.4541 18.8656C20.4274 18.8656 20.4008 18.8823 20.3741 18.8873C20.1806 18.9131 20.0048 19.0131 19.8835 19.166C19.7623 19.319 19.7052 19.5131 19.7241 19.7073V19.704V32.9229L19.7258 33.0812C19.7258 33.7612 19.5941 34.4096 19.3525 35.0013L19.3642 34.9663C19.1502 35.4702 18.8229 35.918 18.4079 36.275C17.9929 36.632 17.5012 36.8885 16.971 37.0247L16.946 37.0297C16.3676 37.1996 15.7702 37.2959 15.1677 37.3164H15.1544C14.4002 37.3592 13.6568 37.1221 13.0666 36.6506C12.4764 36.1791 12.0811 35.5063 11.9562 34.7613L11.9546 34.7429C11.8244 34.0365 11.9427 33.3068 12.2893 32.6776C12.6359 32.0484 13.1895 31.5586 13.8561 31.2911L13.8778 31.2845C14.4552 31.0568 15.0536 30.8866 15.6644 30.7761L15.7244 30.7678C16.2027 30.6678 16.6826 30.5744 17.1576 30.4728C17.4353 30.4327 17.6893 30.2938 17.8729 30.0817C18.0566 29.8696 18.1576 29.5983 18.1576 29.3177V29.2811V29.2827V14.2154C18.1576 14.0004 18.1826 13.7921 18.2309 13.5921L18.2276 13.6104C18.2803 13.3956 18.3934 13.2003 18.5534 13.0477C18.7134 12.895 18.9138 12.7913 19.1308 12.7487L19.1375 12.747C19.5625 12.637 19.9958 12.5604 20.4274 12.472C21.649 12.222 22.8706 11.972 24.0939 11.732L27.877 10.9653C28.9936 10.7419 30.1102 10.5153 31.2268 10.2986C31.5285 10.2286 31.9051 10.1669 32.2885 10.1253L32.3335 10.1219C32.4479 10.1076 32.5641 10.1176 32.6744 10.1512C32.7848 10.1848 32.8868 10.2412 32.9739 10.3168C33.061 10.3924 33.1312 10.4856 33.1799 10.5901C33.2286 10.6947 33.2548 10.8083 33.2567 10.9236C33.2701 11.0353 33.2767 11.1636 33.2767 11.2936V20.849L33.2884 20.8557Z" fill="#3C74A6"/>
</svg>
