<?xml version="1.0" encoding="UTF-8"?>
<svg id="Layer_2" data-name="Layer 2" xmlns="http://www.w3.org/2000/svg" viewBox="0 0 42.34 84">
  <defs>
    <style>
      .cls-1, .cls-2, .cls-3, .cls-4 {
        fill: #fff;
      }

      .cls-2 {
        opacity: .33;
      }

      .cls-2, .cls-3, .cls-4 {
        fill-rule: evenodd;
      }

      .cls-3 {
        opacity: .94;
      }
    </style>
  </defs>
  <g id="Kropp">
    <g>
      <path id="Stjerne_9" data-name="Stjerne 9" class="cls-4" d="m16.13,4.26c.31,0,.57.25.57.57s-.25.57-.57.57-.57-.25-.57-.57.25-.57.57-.57Z"/>
      <path id="Stjerne_8" data-name="Stjerne 8" class="cls-4" d="m16.4,8.42c.16,0,.29.13.29.29s-.13.29-.29.29-.29-.13-.29-.29.13-.29.29-.29Z"/>
      <path id="Stjerne_7" data-name="Stjerne 7" class="cls-4" d="m21.63,7.85c.24,0,.43.19.43.43s-.19.43-.43.43-.43-.19-.43-.43.19-.43.43-.43Z"/>
      <circle id="Stjerne_6" data-name="Stjerne 6" class="cls-1" cx="24.77" cy="3.44" r=".38"/>
      <path id="Stjerne_5" data-name="Stjerne 5" class="cls-4" d="m27.98,13.44c.21,0,.39.17.39.39s-.17.39-.39.39-.39-.17-.39-.39.17-.39.39-.39Z"/>
      <circle id="Stjerne_4" data-name="Stjerne 4" class="cls-1" cx="11.78" cy="18.83" r=".38"/>
      <path id="Stjerne_3" data-name="Stjerne 3" class="cls-4" d="m35.07,14.22c.22,0,.41.18.41.41s-.18.41-.41.41-.41-.18-.41-.41.18-.41.41-.41Z"/>
      <circle id="Stjerne_2" data-name="Stjerne 2" class="cls-1" cx="30.35" cy="6" r=".61"/>
      <path id="Stjerne_1" data-name="Stjerne 1" class="cls-4" d="m6.28,14.62c.24,0,.43.19.43.43s-.19.43-.43.43-.43-.19-.43-.43.19-.43.43-.43Z"/>
      <path id="Halvmåne" class="cls-4" d="m13.11,4.34c-.45.99-.63,2.11-.48,3.27.44,3.3,3.47,5.62,6.77,5.19.64-.08,1.24-.27,1.8-.53-.83,1.84-2.56,3.21-4.71,3.5-3.3.44-6.33-1.89-6.77-5.19-.35-2.66,1.09-5.14,3.39-6.24Z"/>
      <path id="Sky_2" data-name="Sky 2" class="cls-4" d="m3.31,22.98c-.03-.16-.05-.32-.05-.48,0-1.29,1.04-2.33,2.33-2.33.91,0,1.7.52,2.08,1.28.08-.01.16-.02.25-.02.54,0,1.02.28,1.3.7.08-.02.17-.03.25-.03.55,0,1.02.37,1.17.88H3.31Z"/>
      <path id="Sky_1" data-name="Sky 1" class="cls-4" d="m29.33,20.17c-.04-.21-.07-.43-.07-.65,0-1.72,1.4-3.12,3.12-3.12,1.22,0,2.27.7,2.79,1.71.11-.02.22-.03.33-.03.73,0,1.37.37,1.74.94.11-.02.22-.04.34-.04.74,0,1.37.5,1.56,1.18h-9.82Z"/>
      <path class="cls-1" d="m18.86,69.11c-2.08,0-4.39-.89-6.62-1.75-1.68-.65-3.27-1.26-4.53-1.38-2.19-.21-5.12.86-6.53,1.38-.13.05-.26-.02-.31-.14-.05-.13.02-.26.14-.31,1.44-.53,4.44-1.63,6.74-1.4,1.33.13,2.94.75,4.65,1.41,2.23.86,4.54,1.75,6.55,1.72,1.87-.03,3.79-.93,5.65-1.81,1.73-.81,3.37-1.58,4.93-1.67,1.79-.11,3.79.7,5.55,1.4,1.21.48,2.36.94,3.16.97,1.16.05,2.46-1.23,3.09-1.84.1-.09.25-.09.34,0,.09.1.09.25,0,.34-.68.66-2.08,2.03-3.45,1.98-.88-.03-2.01-.49-3.32-1.01-1.72-.69-3.66-1.46-5.35-1.37-1.47.08-3.07.83-4.76,1.62-1.91.89-3.88,1.82-5.85,1.85-.04,0-.08,0-.11,0Z"/>
      <path class="cls-1" d="m31.11,80.18c-.52-.09-1.04-.13-1.54-.1-1.57.09-3.2.86-4.93,1.67-.78.37-1.58.74-2.37,1.05-1.1.43-2.2.74-3.28.76-2.02.03-4.32-.86-6.56-1.72-.66-.26-1.32-.51-1.94-.73,2.79,1.64,5.99,2.65,9.4,2.85,1.33-.19,2.65-.72,3.95-1.31.34-.15.67-.31,1-.47,1.69-.79,3.28-1.54,4.76-1.62.26-.01.53,0,.8.02.58.05,1.17.18,1.77.35.18-.11.36-.22.54-.34-.53-.17-1.07-.31-1.59-.4Z"/>
      <path class="cls-1" d="m35.08,78.67c-.37-.15-.76-.3-1.15-.45-1.45-.55-2.99-1.03-4.41-.95-1.57.09-3.2.86-4.93,1.67-1.86.87-3.79,1.78-5.65,1.8-2.02.04-4.32-.86-6.56-1.72-1.71-.66-3.33-1.28-4.65-1.41h0c-.53-.05-1.09-.03-1.66.03.15.15.3.3.45.44.4-.03.8-.03,1.17,0,.23.02.47.06.72.11,1.12.23,2.43.74,3.81,1.27,2.24.86,4.55,1.75,6.62,1.75.04,0,.07,0,.11,0,1.97-.03,3.94-.96,5.85-1.85,1.69-.79,3.28-1.54,4.76-1.62,1.24-.07,2.62.33,3.94.82.43.16.85.33,1.26.49.14-.11.28-.23.41-.35-.03-.01-.06-.02-.09-.04Z"/>
      <path class="cls-1" d="m35.92,76.33c-.28-.11-.57-.22-.86-.34-1.76-.7-3.76-1.51-5.55-1.4-1.57.09-3.2.86-4.93,1.67-1.86.87-3.79,1.78-5.65,1.8-2.02.04-4.32-.86-6.56-1.72-1.71-.66-3.33-1.28-4.65-1.41-.74-.07-1.55,0-2.35.13-.43.07-.85.16-1.27.27.1.14.21.28.31.42.43-.1.86-.19,1.3-.26.68-.1,1.35-.14,1.96-.08,1.26.12,2.84.73,4.52,1.38,2.23.86,4.55,1.75,6.62,1.75h.11c1.97-.03,3.94-.96,5.85-1.85,1.69-.79,3.28-1.54,4.76-1.62,1.68-.1,3.63.68,5.35,1.37.23.09.46.18.68.27.42.17.83.32,1.2.44.12-.13.24-.26.35-.4-.37-.11-.78-.26-1.2-.42Z"/>
      <path class="cls-1" d="m38.16,74.1c-.14,0-.28-.02-.44-.05-.75-.14-1.71-.52-2.72-.92-1.76-.7-3.77-1.51-5.55-1.4-1.57.09-3.2.86-4.93,1.67-1.86.87-3.79,1.78-5.65,1.8-2.02.04-4.32-.86-6.56-1.72-1.71-.66-3.33-1.28-4.65-1.41-1.24-.12-2.67.14-3.96.49-.4.11-.79.23-1.16.34.08.14.16.29.24.43h0c.37-.12.76-.23,1.17-.34,1.21-.32,2.53-.55,3.66-.44,1.26.12,2.84.73,4.52,1.38,2.24.86,4.55,1.75,6.62,1.75.04,0,.07,0,.11,0,1.97-.03,3.94-.96,5.85-1.85,1.69-.79,3.28-1.54,4.76-1.62,1.68-.09,3.63.68,5.35,1.37.97.39,1.85.74,2.6.91.26.06.5.09.72.1.23,0,.47-.02.7-.09h0c.15-.23.3-.46.44-.69-.37.19-.76.31-1.12.3Z"/>
      <path class="cls-1" d="m41.3,69.12c-.37.36-.98.95-1.66,1.37-.47.29-.97.49-1.44.48-.8-.03-1.94-.49-3.16-.97-1.76-.7-3.76-1.51-5.55-1.4-1.57.09-3.2.86-4.93,1.67-1.86.87-3.79,1.78-5.65,1.8-2.02.04-4.32-.86-6.56-1.72-1.71-.66-3.33-1.28-4.65-1.41-1.68-.16-3.73.38-5.27.89-.41.14-.79.27-1.11.39.06.15.11.3.17.45.32-.12.7-.25,1.11-.39,1.5-.49,3.46-1.01,5.05-.86,1.26.12,2.84.73,4.52,1.38,2.24.86,4.55,1.75,6.62,1.75h.11c1.97-.03,3.94-.96,5.85-1.85,1.69-.79,3.28-1.54,4.76-1.62,1.69-.1,3.63.68,5.35,1.37,1.31.52,2.44.97,3.32,1.01.39.01.77-.08,1.15-.25.67-.29,1.29-.79,1.77-1.23h0c.11-.3.21-.6.3-.91-.04,0-.08.03-.11.06Z"/>
      <path id="Kapsel" class="cls-4" d="m21.17,0C9.48,0,0,9.48,0,21.17v41.66c0,2.6.47,5.08,1.32,7.38.06.15.11.3.17.45.31.77.66,1.52,1.05,2.24.08.14.16.29.24.43h0c.4.69.83,1.37,1.31,2.01.1.14.21.28.31.42.51.67,1.07,1.3,1.66,1.9.15.15.3.3.45.44,1.2,1.15,2.53,2.16,3.97,3.01,2.79,1.64,5.99,2.65,9.4,2.85.42.03.85.04,1.29.04,4.03,0,7.79-1.12,11-3.08.18-.11.36-.22.54-.34.71-.46,1.4-.97,2.05-1.52.14-.11.28-.23.41-.35.56-.49,1.09-1.02,1.6-1.57.12-.13.24-.26.35-.4.62-.71,1.2-1.47,1.72-2.26h0c.15-.23.3-.46.44-.69.73-1.2,1.34-2.49,1.82-3.83h0c.11-.3.21-.6.3-.91.61-1.97.93-4.06.93-6.23V21.17C42.34,9.48,32.86,0,21.17,0Zm16.55,74.04c-.1.14-.2.29-.3.43-.46.65-.97,1.27-1.51,1.85-.11.13-.23.25-.35.38-.51.54-1.06,1.04-1.63,1.52-.14.12-.29.24-.44.35-.75.59-1.54,1.13-2.38,1.6-.24.14-.48.27-.72.39-2.01,1.05-4.22,1.76-6.56,2.07-.52.07-1.04.12-1.58.15-.36.02-.72.03-1.09.03-4.85,0-9.31-1.73-12.77-4.61-.23-.19-.46-.39-.68-.59-.72-.66-1.39-1.37-2.01-2.12-.12-.14-.23-.29-.34-.43-.51-.66-.98-1.36-1.41-2.08-.08-.14-.17-.28-.25-.43-.41-.74-.78-1.5-1.09-2.29-.06-.15-.12-.3-.17-.45-.32-.85-.58-1.73-.78-2.63-.04-.16-.07-.32-.1-.48-.25-1.25-.38-2.55-.38-3.88V21.17C1.18,10.13,10.13,1.18,21.17,1.18s20,8.95,20,20v41.66c0,1.12-.09,2.22-.27,3.3-.04.26-.09.51-.14.76-.26,1.25-.63,2.45-1.11,3.6-.1.24-.2.48-.31.71-.46,1-1,1.95-1.61,2.85Z"/>
      <path id="Bein_Høyre" data-name="Bein Høyre" class="cls-4" d="m22.72,59.18h3.19v-.49h-3.19v.49Zm3.96-2.62c0-1.32-1.07-2.39-2.39-2.39s-2.39,1.07-2.39,2.39v1.59c0,1.32,1.07,2.39,2.39,2.39s2.39-1.07,2.39-2.39v-1.59Z"/>
      <path id="Bein_Venstre" data-name="Bein Venstre" class="cls-4" d="m16.3,59.16h3.19v-.49h-3.19v.49Zm4.01-2.62c0-1.32-1.07-2.39-2.39-2.39s-2.39,1.07-2.39,2.39v1.59c0,1.32,1.07,2.39,2.39,2.39s2.39-1.07,2.39-2.39v-1.59Z"/>
      <path id="_Øye_Venstre" data-name="Øye Venstre" class="cls-3" d="m18.53,33.46s-1.31,1.23-1.31,1.75c0,.72.59,1.31,1.31,1.31s1.31-.59,1.31-1.31c0-.53-1.31-1.75-1.31-1.75Z"/>
      <path id="_Øye_Høyre" data-name="Øye Høyre" class="cls-4" d="m23.76,33.43s-1.31,1.23-1.31,1.75c0,.72.59,1.31,1.31,1.31s1.31-.59,1.31-1.31c0-.53-1.31-1.75-1.31-1.75Z"/>
      <path id="Kropp-2" data-name="Kropp" class="cls-4" d="m25.24,42.38c-.78-.4,9.6-4.36,4.14-15.62-2.14-4.41-4.74-5.46-5.42-7.33-.52-1.44-.18-3.31-1.91-2.55-6.35,2.78-9.32,9.13-10.2,12.11-.5,1.69-2.41,8.62,5.1,13.39,0,0-4.43,10.18-4.46,12.75-.03,2.58,15.01,3.2,17.53.32.97-1.1-4.01-12.67-4.78-13.07Zm-4.14-1.28c-4.4,0-7.97-3.43-7.97-7.65s3.57-7.65,7.97-7.65,7.97,3.43,7.97,7.65-3.57,7.65-7.97,7.65Z"/>
      <path id="Hette_strek" data-name="Hette strek" class="cls-2" d="m24.11,19.77s-.91-1.46-2.09-1.16c-.72.19-.14.14.19.18.96.14,1.01.35,1.9.97Z"/>
    </g>
  </g>
</svg>