<?xml version="1.0" encoding="UTF-8"?>
<svg id="Layer_2" data-name="Layer 2" xmlns="http://www.w3.org/2000/svg" viewBox="0 0 367.98 730">
  <defs>
    <style>
      .cls-1, .cls-2, .cls-3, .cls-4 {
        fill: #fff;
      }

      .cls-5 {
        fill: #083a59;
      }

      .cls-2 {
        opacity: .33;
      }

      .cls-2, .cls-3, .cls-4 {
        fill-rule: evenodd;
      }

      .cls-3 {
        opacity: .94;
      }
    </style>
  </defs>
  <g id="Kropp">
    <g>
      <rect class="cls-5" x="0" width="367.98" height="730" rx="183.99" ry="183.99"/>
      <path id="Stjerne_9" data-name="Stjerne 9" class="cls-4" d="m140.14,37c2.72,0,4.92,2.21,4.92,4.92s-2.21,4.92-4.92,4.92-4.92-2.21-4.92-4.92,2.21-4.92,4.92-4.92Z"/>
      <path id="Stjerne_8" data-name="Stjerne 8" class="cls-4" d="m142.54,73.2c1.4,0,2.53,1.13,2.53,2.53s-1.13,2.53-2.53,2.53-2.53-1.13-2.53-2.53,1.13-2.53,2.53-2.53Z"/>
      <path id="Stjerne_7" data-name="Stjerne 7" class="cls-4" d="m188.01,68.26c2.08,0,3.77,1.69,3.77,3.77s-1.69,3.77-3.77,3.77-3.77-1.69-3.77-3.77,1.69-3.77,3.77-3.77Z"/>
      <circle id="Stjerne_6" data-name="Stjerne 6" class="cls-1" cx="215.27" cy="29.9" r="3.27"/>
      <path id="Stjerne_5" data-name="Stjerne 5" class="cls-4" d="m243.2,116.82c1.86,0,3.38,1.51,3.38,3.37s-1.51,3.38-3.38,3.38-3.37-1.51-3.37-3.38,1.51-3.37,3.37-3.37Z"/>
      <circle id="Stjerne_4" data-name="Stjerne 4" class="cls-1" cx="102.35" cy="163.66" r="3.27"/>
      <path id="Stjerne_3" data-name="Stjerne 3" class="cls-4" d="m304.81,123.57c1.94,0,3.52,1.58,3.52,3.52s-1.58,3.52-3.52,3.52-3.52-1.58-3.52-3.52,1.58-3.52,3.52-3.52Z"/>
      <circle id="Stjerne_2" data-name="Stjerne 2" class="cls-1" cx="263.8" cy="52.13" r="5.28" transform="translate(152.46 296.89) rotate(-76.72)"/>
      <path id="Stjerne_1" data-name="Stjerne 1" class="cls-4" d="m54.59,127.04c2.08,0,3.77,1.69,3.77,3.77s-1.69,3.77-3.77,3.77-3.77-1.69-3.77-3.77,1.69-3.77,3.77-3.77Z"/>
      <path id="Halvmåne" class="cls-4" d="m113.97,37.76c-3.9,8.61-5.51,18.37-4.18,28.42,3.79,28.67,30.15,48.87,58.82,45.07,5.57-.74,10.82-2.32,15.63-4.61-7.22,15.95-22.27,27.94-40.89,30.4-28.67,3.79-55.03-16.41-58.82-45.08-3.06-23.1,9.47-44.7,29.44-54.2Z"/>
      <path id="Sky_2" data-name="Sky 2" class="cls-4" d="m28.73,199.72c-.29-1.35-.44-2.76-.44-4.2,0-11.18,9.08-20.25,20.25-20.25,7.9,0,14.74,4.53,18.08,11.13.71-.11,1.43-.17,2.17-.17,4.72,0,8.88,2.43,11.29,6.1.71-.15,1.45-.23,2.21-.23,4.81,0,8.88,3.23,10.16,7.63H28.73Z"/>
      <path id="Sky_1" data-name="Sky 1" class="cls-4" d="m254.93,175.26c-.38-1.81-.59-3.7-.59-5.63,0-14.96,12.15-27.11,27.11-27.11,10.57,0,19.74,6.06,24.21,14.9.95-.15,1.92-.23,2.91-.23,6.32,0,11.88,3.25,15.12,8.16.95-.2,1.94-.31,2.96-.31,6.45,0,11.89,4.32,13.59,10.22h-85.31Z"/>
      <path class="cls-1" d="m163.9,600.61c-18.05,0-38.12-7.73-57.54-15.2-14.6-5.62-28.39-10.93-39.33-11.99-19.06-1.85-44.52,7.48-56.75,11.96-1.09.4-2.29-.16-2.69-1.25-.4-1.09.16-2.29,1.25-2.69,12.52-4.59,38.56-14.15,58.6-12.2,11.52,1.12,25.56,6.53,40.44,12.25,19.4,7.47,39.43,15.25,56.96,14.92,16.23-.26,32.95-8.1,49.13-15.69,15.05-7.06,29.27-13.73,42.88-14.5,15.52-.92,32.93,6.05,48.25,12.17,10.55,4.21,20.52,8.19,27.43,8.46,10.12.4,21.42-10.69,26.87-16.01.83-.8,2.16-.79,2.97.04.81.83.79,2.16-.04,2.97-5.87,5.73-18.07,17.62-29.96,17.2-7.64-.29-17.46-4.22-28.83-8.76-14.92-5.96-31.85-12.71-46.46-11.88-12.79.73-26.66,7.23-41.34,14.11-16.58,7.77-33.72,15.81-50.84,16.08-.33,0-.66,0-.99,0Z"/>
      <path class="cls-1" d="m270.39,696.81c-4.55-.8-9.06-1.15-13.42-.9-13.61.78-27.83,7.44-42.88,14.49-6.81,3.19-13.71,6.44-20.63,9.12-9.54,3.73-19.1,6.42-28.5,6.58-17.55.29-37.55-7.46-56.97-14.93-5.77-2.24-11.45-4.4-16.88-6.31,24.24,14.22,52.02,23.02,81.69,24.81,11.53-1.66,23.04-6.27,34.35-11.43,2.91-1.32,5.83-2.68,8.72-4.05,14.68-6.88,28.54-13.38,41.33-14.11,2.26-.13,4.57-.06,6.94.15,5.01.42,10.19,1.53,15.41,3.04,1.59-.96,3.15-1.95,4.7-2.98-4.61-1.47-9.27-2.68-13.86-3.48Z"/>
      <path class="cls-1" d="m304.82,683.72c-3.25-1.3-6.56-2.62-9.96-3.92-12.62-4.8-26-8.97-38.29-8.24-13.61.78-27.83,7.44-42.88,14.49-16.17,7.59-32.9,15.43-49.13,15.68-17.55.36-37.55-7.44-56.97-14.91-14.87-5.72-28.92-11.13-40.43-12.25h-.08c-4.57-.44-9.46-.29-14.41.29,1.28,1.32,2.58,2.6,3.9,3.84,3.5-.27,6.94-.27,10.19.04,1.99.19,4.07.52,6.23.96,9.75,2.03,21.14,6.44,33.09,11.03,19.44,7.46,39.5,15.2,57.56,15.2.34,0,.65,0,.99-.02,17.13-.27,34.26-8.3,50.85-16.08,14.68-6.88,28.54-13.38,41.33-14.11,10.76-.61,22.75,2.87,34.24,7.13,3.73,1.38,7.42,2.83,10.99,4.26,1.22-.99,2.43-2.03,3.61-3.08-.27-.1-.55-.21-.82-.31Z"/>
      <path class="cls-1" d="m312.14,663.34c-2.43-.94-4.93-1.93-7.44-2.94-15.33-6.12-32.69-13.08-48.25-12.18-13.61.78-27.83,7.44-42.88,14.51-16.19,7.59-32.9,15.43-49.13,15.68-17.55.31-37.58-7.44-56.97-14.91-14.87-5.72-28.92-11.13-40.43-12.27-6.42-.61-13.44-.06-20.44,1.15-3.73.63-7.42,1.43-11.03,2.35.88,1.24,1.8,2.45,2.73,3.65,3.71-.9,7.51-1.68,11.28-2.24,5.89-.9,11.74-1.26,17.07-.73,10.95,1.07,24.72,6.37,39.32,11.99,19.42,7.49,39.5,15.2,57.56,15.2h.99c17.13-.27,34.26-8.3,50.85-16.08,14.68-6.88,28.54-13.38,41.33-14.11,14.62-.84,31.54,5.91,46.47,11.87,2.01.82,3.98,1.59,5.91,2.35,3.69,1.45,7.19,2.77,10.46,3.8,1.05-1.13,2.08-2.29,3.08-3.44-3.25-.96-6.77-2.24-10.46-3.65Z"/>
      <path class="cls-1" d="m331.64,643.92c-1.17-.04-2.45-.19-3.8-.44-6.54-1.17-14.89-4.51-23.63-8.01-15.33-6.12-32.75-13.08-48.25-12.18-13.61.78-27.83,7.44-42.88,14.51-16.19,7.59-32.9,15.43-49.13,15.68-17.53.36-37.55-7.44-56.97-14.91-14.87-5.72-28.92-11.13-40.43-12.25-10.74-1.05-23.21,1.22-34.39,4.26-3.5.94-6.88,1.97-10.04,2.98.67,1.26,1.36,2.5,2.05,3.73h.02c3.21-1.03,6.61-2.03,10.13-2.98,10.53-2.77,22.02-4.78,31.83-3.82,10.95,1.05,24.72,6.37,39.32,11.97,19.44,7.49,39.5,15.22,57.56,15.22.34,0,.65-.02.99-.02,17.13-.27,34.26-8.3,50.85-16.08,14.68-6.88,28.54-13.38,41.33-14.11,14.62-.82,31.56,5.91,46.47,11.87,8.47,3.4,16.08,6.44,22.56,7.88,2.22.5,4.32.8,6.27.88,2.01.06,4.05-.21,6.06-.75h.02c1.32-1.97,2.6-4,3.84-6.04-3.23,1.68-6.58,2.73-9.77,2.6Z"/>
      <path class="cls-1" d="m358.92,600.67c-3.23,3.15-8.51,8.28-14.38,11.89-4.07,2.52-8.41,4.28-12.5,4.13-6.92-.27-16.88-4.26-27.43-8.45-15.33-6.12-32.69-13.08-48.25-12.18-13.61.78-27.83,7.44-42.88,14.51-16.19,7.59-32.9,15.43-49.13,15.68-17.53.31-37.58-7.44-56.97-14.91-14.87-5.72-28.92-11.13-40.43-12.27-14.57-1.4-32.38,3.27-45.8,7.72-3.59,1.17-6.86,2.33-9.67,3.35.48,1.32.99,2.62,1.51,3.92,2.81-1.03,6.08-2.2,9.67-3.38,13.04-4.28,30.11-8.79,43.89-7.44,10.95,1.07,24.72,6.37,39.32,11.99,19.44,7.49,39.5,15.2,57.56,15.2h.99c17.13-.27,34.26-8.3,50.85-16.08,14.68-6.88,28.54-13.38,41.33-14.11,14.66-.84,31.54,5.91,46.47,11.87,11.36,4.55,21.18,8.47,28.81,8.76,3.35.13,6.73-.73,9.98-2.16,5.81-2.54,11.22-6.88,15.39-10.67l.02-.02c.94-2.6,1.8-5.22,2.62-7.88-.36.06-.69.25-.96.52Z"/>
      <path id="Kapsel" class="cls-4" d="m183.98,0C82.36,0,0,82.36,0,183.98v362.04c0,22.56,4.07,44.16,11.49,64.12.48,1.32.99,2.62,1.51,3.92,2.66,6.71,5.72,13.21,9.12,19.5.67,1.26,1.36,2.5,2.05,3.73h.02c3.46,6.04,7.26,11.87,11.36,17.45.88,1.24,1.8,2.45,2.73,3.65,4.47,5.79,9.27,11.28,14.38,16.48,1.28,1.32,2.58,2.6,3.9,3.84,10.42,10.02,22,18.81,34.54,26.15,24.24,14.22,52.02,23.02,81.69,24.81,3.69.23,7.42.34,11.18.34,35,0,67.73-9.77,95.57-26.73,1.59-.96,3.15-1.95,4.7-2.98,6.21-4.03,12.14-8.41,17.78-13.17,1.22-.99,2.43-2.03,3.61-3.08,4.86-4.28,9.5-8.83,13.88-13.61,1.05-1.13,2.08-2.29,3.08-3.44,5.41-6.19,10.42-12.75,14.95-19.63h.02c1.32-1.97,2.6-4,3.84-6.04,6.33-10.46,11.66-21.6,15.83-33.28l.02-.02c.94-2.6,1.8-5.22,2.62-7.88,5.26-17.11,8.09-35.29,8.09-54.12V183.98C367.98,82.36,285.59,0,183.98,0Zm143.87,643.48c-.84,1.26-1.7,2.52-2.62,3.75-4.03,5.64-8.39,11.01-13.08,16.1-.99,1.11-2.01,2.2-3.08,3.29-4.47,4.66-9.23,9.06-14.2,13.17-1.26,1.07-2.52,2.08-3.82,3.06-6.52,5.14-13.42,9.79-20.65,13.94-2.05,1.2-4.15,2.33-6.25,3.42-17.47,9.1-36.67,15.33-56.99,18.01-4.51.63-9.08,1.05-13.69,1.28-3.12.19-6.29.27-9.48.27-42.19,0-80.9-15.06-110.99-40.07-2.01-1.66-3.98-3.38-5.91-5.14-6.27-5.72-12.12-11.87-17.51-18.43-1.01-1.24-2.01-2.5-2.98-3.75-4.47-5.75-8.56-11.78-12.27-18.07-.73-1.22-1.45-2.47-2.16-3.73-3.56-6.4-6.75-13.04-9.5-19.9-.52-1.3-1.03-2.6-1.51-3.9-2.77-7.4-5.03-15.06-6.77-22.9-.31-1.38-.61-2.77-.88-4.17-2.14-10.88-3.27-22.16-3.27-33.7V183.98C10.23,88.01,88.03,10.21,183.98,10.21s173.77,77.79,173.77,173.77v362.04c0,9.75-.8,19.33-2.35,28.64-.38,2.22-.78,4.42-1.22,6.61-2.24,10.84-5.47,21.3-9.65,31.29-.84,2.08-1.74,4.13-2.68,6.16-3.98,8.66-8.68,16.94-14.01,24.76Z"/>
      <path id="Bein_Høyre" data-name="Bein Høyre" class="cls-4" d="m197.47,514.32h27.7v-4.26h-27.7v4.26Zm34.44-22.8c0-11.47-9.31-20.78-20.78-20.78s-20.78,9.31-20.78,20.78v13.85c0,11.47,9.31,20.78,20.78,20.78s20.78-9.31,20.78-20.78v-13.85Z"/>
      <path id="Bein_Venstre" data-name="Bein Venstre" class="cls-4" d="m141.67,514.09h27.7v-4.26h-27.7v4.26Zm34.82-22.8c0-11.47-9.31-20.78-20.78-20.78s-20.78,9.31-20.78,20.78v13.85c0,11.47,9.31,20.78,20.78,20.78s20.78-9.31,20.78-20.78v-13.85Z"/>
      <path id="_Øye_Venstre" data-name="Øye Venstre" class="cls-3" d="m161.05,290.76s-11.38,10.65-11.38,15.22c0,6.28,5.1,11.38,11.38,11.38s11.38-5.1,11.38-11.38c0-4.56-11.38-15.22-11.38-15.22Z"/>
      <path id="_Øye_Høyre" data-name="Øye Høyre" class="cls-4" d="m206.46,290.53s-11.38,10.65-11.38,15.22c0,6.28,5.1,11.38,11.38,11.38s11.38-5.1,11.38-11.38c0-4.56-11.38-15.22-11.38-15.22Z"/>
      <path id="Kropp-2" data-name="Kropp" class="cls-4" d="m219.32,368.34c-6.75-3.52,83.41-37.9,36.02-135.75-18.57-38.35-41.24-47.43-47.1-63.72-4.49-12.48-1.58-28.75-16.62-22.16-55.19,24.14-81,79.31-88.65,105.28-4.34,14.72-20.96,74.88,44.33,116.36,0,0-38.53,88.43-38.79,110.82-.26,22.38,130.46,27.79,152.37,2.77,8.39-9.58-34.81-110.07-41.56-113.59Zm-36.02-11.08c-38.23,0-69.26-29.79-69.26-66.49s31.03-66.49,69.26-66.49,69.26,29.79,69.26,66.49-31.03,66.49-69.26,66.49Z"/>
      <path id="Hette_strek" data-name="Hette strek" class="cls-2" d="m209.53,171.84s-7.92-12.71-18.13-10.04c-6.3,1.64-1.25,1.17,1.64,1.58,8.34,1.18,8.79,3.02,16.49,8.46Z"/>
    </g>
  </g>
</svg>